<mxfile host="app.diagrams.net" agent="Mozilla/5.0 (Windows NT 10.0; Win64; x64) AppleWebKit/537.36 (KHTML, like Gecko) Chrome/131.0.0.0 Safari/537.36" version="24.8.8">
  <diagram id="C5RBs43oDa-KdzZeNtuy" name="Page-1">
    <mxGraphModel dx="318" dy="184" grid="1" gridSize="10" guides="1" tooltips="1" connect="1" arrows="1" fold="1" page="1" pageScale="1" pageWidth="827" pageHeight="1169" math="0" shadow="0">
      <root>
        <mxCell id="WIyWlLk6GJQsqaUBKTNV-0" />
        <mxCell id="WIyWlLk6GJQsqaUBKTNV-1" parent="WIyWlLk6GJQsqaUBKTNV-0" />
        <mxCell id="K546R3tfsQZQjaJNBDif-0" value="Power / Functional Block diagram" style="text;html=1;align=center;verticalAlign=middle;resizable=0;points=[];autosize=1;strokeColor=none;fillColor=none;fontStyle=1;horizontal=1;fontSize=17;" parent="WIyWlLk6GJQsqaUBKTNV-1" vertex="1">
          <mxGeometry x="74" y="60" width="280" height="30" as="geometry" />
        </mxCell>
        <mxCell id="K546R3tfsQZQjaJNBDif-8" style="edgeStyle=orthogonalEdgeStyle;rounded=0;orthogonalLoop=1;jettySize=auto;html=1;exitX=0.5;exitY=1;exitDx=0;exitDy=0;entryX=0.5;entryY=0;entryDx=0;entryDy=0;fillColor=#f8cecc;strokeColor=#b85450;shape=flexArrow;strokeWidth=0;" parent="WIyWlLk6GJQsqaUBKTNV-1" source="K546R3tfsQZQjaJNBDif-1" target="K546R3tfsQZQjaJNBDif-2" edge="1">
          <mxGeometry relative="1" as="geometry" />
        </mxCell>
        <mxCell id="K546R3tfsQZQjaJNBDif-9" style="edgeStyle=orthogonalEdgeStyle;rounded=0;orthogonalLoop=1;jettySize=auto;html=1;exitX=0.5;exitY=1;exitDx=0;exitDy=0;entryX=0.5;entryY=0;entryDx=0;entryDy=0;fillColor=#f8cecc;strokeColor=#b85450;shape=flexArrow;strokeWidth=0;" parent="WIyWlLk6GJQsqaUBKTNV-1" source="K546R3tfsQZQjaJNBDif-1" target="K546R3tfsQZQjaJNBDif-3" edge="1">
          <mxGeometry relative="1" as="geometry" />
        </mxCell>
        <mxCell id="K546R3tfsQZQjaJNBDif-1" value="~ 120V 60Hz" style="rounded=1;whiteSpace=wrap;html=1;" parent="WIyWlLk6GJQsqaUBKTNV-1" vertex="1">
          <mxGeometry x="140" y="112" width="120" height="60" as="geometry" />
        </mxCell>
        <mxCell id="K546R3tfsQZQjaJNBDif-10" style="edgeStyle=orthogonalEdgeStyle;rounded=0;orthogonalLoop=1;jettySize=auto;html=1;exitX=0.5;exitY=1;exitDx=0;exitDy=0;entryX=0.5;entryY=0;entryDx=0;entryDy=0;fillColor=#f8cecc;strokeColor=#b85450;shape=flexArrow;strokeWidth=0;" parent="WIyWlLk6GJQsqaUBKTNV-1" source="K546R3tfsQZQjaJNBDif-2" target="K546R3tfsQZQjaJNBDif-4" edge="1">
          <mxGeometry relative="1" as="geometry" />
        </mxCell>
        <mxCell id="K546R3tfsQZQjaJNBDif-2" value="Raspberry Pi Power supply" style="rounded=1;whiteSpace=wrap;html=1;" parent="WIyWlLk6GJQsqaUBKTNV-1" vertex="1">
          <mxGeometry x="80" y="222" width="120" height="60" as="geometry" />
        </mxCell>
        <mxCell id="K546R3tfsQZQjaJNBDif-16" style="edgeStyle=orthogonalEdgeStyle;rounded=0;orthogonalLoop=1;jettySize=auto;html=1;exitX=0.5;exitY=1;exitDx=0;exitDy=0;entryX=0;entryY=0.5;entryDx=0;entryDy=0;fillColor=#f8cecc;strokeColor=#b85450;shape=flexArrow;strokeWidth=0;endSize=4;startSize=4;" parent="WIyWlLk6GJQsqaUBKTNV-1" source="K546R3tfsQZQjaJNBDif-3" target="K546R3tfsQZQjaJNBDif-7" edge="1">
          <mxGeometry relative="1" as="geometry">
            <Array as="points">
              <mxPoint x="280" y="282" />
            </Array>
          </mxGeometry>
        </mxCell>
        <mxCell id="K546R3tfsQZQjaJNBDif-18" style="edgeStyle=orthogonalEdgeStyle;rounded=0;orthogonalLoop=1;jettySize=auto;html=1;exitX=0.5;exitY=1;exitDx=0;exitDy=0;entryX=0;entryY=0.5;entryDx=0;entryDy=0;fillColor=#f8cecc;strokeColor=#b85450;shape=flexArrow;strokeWidth=0;endSize=4;startSize=4;" parent="WIyWlLk6GJQsqaUBKTNV-1" source="K546R3tfsQZQjaJNBDif-3" target="K546R3tfsQZQjaJNBDif-6" edge="1">
          <mxGeometry relative="1" as="geometry" />
        </mxCell>
        <mxCell id="K546R3tfsQZQjaJNBDif-19" style="edgeStyle=orthogonalEdgeStyle;rounded=0;orthogonalLoop=1;jettySize=auto;html=1;exitX=0.5;exitY=1;exitDx=0;exitDy=0;entryX=0;entryY=0.5;entryDx=0;entryDy=0;fillColor=#f8cecc;strokeColor=#b85450;shape=flexArrow;strokeWidth=0;endSize=4;startSize=4;" parent="WIyWlLk6GJQsqaUBKTNV-1" source="K546R3tfsQZQjaJNBDif-3" target="K546R3tfsQZQjaJNBDif-5" edge="1">
          <mxGeometry relative="1" as="geometry" />
        </mxCell>
        <mxCell id="K546R3tfsQZQjaJNBDif-3" value="Adjustable power&amp;nbsp;&lt;div&gt;Supply 2A&lt;/div&gt;" style="rounded=1;whiteSpace=wrap;html=1;" parent="WIyWlLk6GJQsqaUBKTNV-1" vertex="1">
          <mxGeometry x="214" y="222" width="120" height="60" as="geometry" />
        </mxCell>
        <mxCell id="K546R3tfsQZQjaJNBDif-14" value="" style="edgeStyle=orthogonalEdgeStyle;rounded=0;orthogonalLoop=1;jettySize=auto;html=1;fillColor=#f8cecc;strokeColor=#b85450;shape=flexArrow;strokeWidth=0;endSize=4;startSize=4;" parent="WIyWlLk6GJQsqaUBKTNV-1" source="K546R3tfsQZQjaJNBDif-4" target="K546R3tfsQZQjaJNBDif-12" edge="1">
          <mxGeometry relative="1" as="geometry" />
        </mxCell>
        <mxCell id="K546R3tfsQZQjaJNBDif-79" style="edgeStyle=orthogonalEdgeStyle;rounded=0;orthogonalLoop=1;jettySize=auto;html=1;exitX=1;exitY=0.25;exitDx=0;exitDy=0;entryX=0;entryY=0.25;entryDx=0;entryDy=0;" parent="WIyWlLk6GJQsqaUBKTNV-1" source="K546R3tfsQZQjaJNBDif-4" target="K546R3tfsQZQjaJNBDif-7" edge="1">
          <mxGeometry relative="1" as="geometry" />
        </mxCell>
        <mxCell id="K546R3tfsQZQjaJNBDif-84" style="edgeStyle=orthogonalEdgeStyle;rounded=0;orthogonalLoop=1;jettySize=auto;html=1;exitX=1;exitY=0.75;exitDx=0;exitDy=0;entryX=0;entryY=0.25;entryDx=0;entryDy=0;" parent="WIyWlLk6GJQsqaUBKTNV-1" source="K546R3tfsQZQjaJNBDif-4" target="K546R3tfsQZQjaJNBDif-6" edge="1">
          <mxGeometry relative="1" as="geometry">
            <mxPoint x="310" y="490" as="targetPoint" />
          </mxGeometry>
        </mxCell>
        <mxCell id="K546R3tfsQZQjaJNBDif-86" style="edgeStyle=orthogonalEdgeStyle;rounded=0;orthogonalLoop=1;jettySize=auto;html=1;exitX=0.972;exitY=0.958;exitDx=0;exitDy=0;entryX=0;entryY=0.25;entryDx=0;entryDy=0;exitPerimeter=0;" parent="WIyWlLk6GJQsqaUBKTNV-1" source="K546R3tfsQZQjaJNBDif-4" target="K546R3tfsQZQjaJNBDif-5" edge="1">
          <mxGeometry relative="1" as="geometry">
            <mxPoint x="250" y="480" as="targetPoint" />
            <Array as="points">
              <mxPoint x="250" y="390" />
              <mxPoint x="250" y="522" />
            </Array>
          </mxGeometry>
        </mxCell>
        <mxCell id="K546R3tfsQZQjaJNBDif-87" style="edgeStyle=orthogonalEdgeStyle;rounded=0;orthogonalLoop=1;jettySize=auto;html=1;exitX=0.75;exitY=1;exitDx=0;exitDy=0;entryX=0;entryY=0.75;entryDx=0;entryDy=0;" parent="WIyWlLk6GJQsqaUBKTNV-1" source="K546R3tfsQZQjaJNBDif-4" target="K546R3tfsQZQjaJNBDif-5" edge="1">
          <mxGeometry relative="1" as="geometry">
            <mxPoint x="230" y="470" as="targetPoint" />
            <Array as="points">
              <mxPoint x="190" y="392" />
              <mxPoint x="190" y="552" />
            </Array>
          </mxGeometry>
        </mxCell>
        <mxCell id="K546R3tfsQZQjaJNBDif-4" value="Raspberry Pi&lt;div&gt;4&lt;/div&gt;" style="rounded=1;whiteSpace=wrap;html=1;" parent="WIyWlLk6GJQsqaUBKTNV-1" vertex="1">
          <mxGeometry x="80" y="332" width="120" height="60" as="geometry" />
        </mxCell>
        <mxCell id="K546R3tfsQZQjaJNBDif-58" style="edgeStyle=orthogonalEdgeStyle;rounded=0;orthogonalLoop=1;jettySize=auto;html=1;exitX=1;exitY=0.5;exitDx=0;exitDy=0;fillColor=#f8cecc;strokeColor=#b85450;shape=flexArrow;strokeWidth=0;endSize=4;startSize=4;" parent="WIyWlLk6GJQsqaUBKTNV-1" source="K546R3tfsQZQjaJNBDif-5" edge="1">
          <mxGeometry relative="1" as="geometry">
            <mxPoint x="520" y="550" as="targetPoint" />
          </mxGeometry>
        </mxCell>
        <mxCell id="K546R3tfsQZQjaJNBDif-59" style="edgeStyle=orthogonalEdgeStyle;rounded=0;orthogonalLoop=1;jettySize=auto;html=1;exitX=1;exitY=0.5;exitDx=0;exitDy=0;entryX=0;entryY=0.75;entryDx=0;entryDy=0;fillColor=#f8cecc;strokeColor=#b85450;shape=flexArrow;strokeWidth=0;endSize=4;startSize=4;" parent="WIyWlLk6GJQsqaUBKTNV-1" source="K546R3tfsQZQjaJNBDif-5" target="K546R3tfsQZQjaJNBDif-31" edge="1">
          <mxGeometry relative="1" as="geometry" />
        </mxCell>
        <mxCell id="K546R3tfsQZQjaJNBDif-5" value="Motor Driver" style="rounded=1;whiteSpace=wrap;html=1;" parent="WIyWlLk6GJQsqaUBKTNV-1" vertex="1">
          <mxGeometry x="320" y="507" width="120" height="60" as="geometry" />
        </mxCell>
        <mxCell id="K546R3tfsQZQjaJNBDif-57" style="edgeStyle=orthogonalEdgeStyle;rounded=0;orthogonalLoop=1;jettySize=auto;html=1;exitX=1;exitY=0.5;exitDx=0;exitDy=0;entryX=0;entryY=0.75;entryDx=0;entryDy=0;fillColor=#f8cecc;strokeColor=#b85450;shape=flexArrow;strokeWidth=0;endSize=4;startSize=4;" parent="WIyWlLk6GJQsqaUBKTNV-1" source="K546R3tfsQZQjaJNBDif-6" target="K546R3tfsQZQjaJNBDif-50" edge="1">
          <mxGeometry relative="1" as="geometry" />
        </mxCell>
        <mxCell id="K546R3tfsQZQjaJNBDif-6" value="&#xa;&lt;span style=&quot;color: rgb(0, 0, 0); font-family: Helvetica; font-size: 12px; font-style: normal; font-variant-ligatures: normal; font-variant-caps: normal; font-weight: 400; letter-spacing: normal; orphans: 2; text-align: center; text-indent: 0px; text-transform: none; widows: 2; word-spacing: 0px; -webkit-text-stroke-width: 0px; white-space: normal; background-color: rgb(251, 251, 251); text-decoration-thickness: initial; text-decoration-style: initial; text-decoration-color: initial; display: inline !important; float: none;&quot;&gt;Motor Driver&lt;/span&gt;&#xa;&#xa;" style="rounded=1;whiteSpace=wrap;html=1;" parent="WIyWlLk6GJQsqaUBKTNV-1" vertex="1">
          <mxGeometry x="320" y="412" width="120" height="60" as="geometry" />
        </mxCell>
        <mxCell id="K546R3tfsQZQjaJNBDif-56" style="edgeStyle=orthogonalEdgeStyle;rounded=0;orthogonalLoop=1;jettySize=auto;html=1;exitX=1;exitY=0.5;exitDx=0;exitDy=0;entryX=0;entryY=0.75;entryDx=0;entryDy=0;fillColor=#f8cecc;strokeColor=#b85450;shape=flexArrow;strokeWidth=0;endSize=4;startSize=4;" parent="WIyWlLk6GJQsqaUBKTNV-1" source="K546R3tfsQZQjaJNBDif-7" target="K546R3tfsQZQjaJNBDif-44" edge="1">
          <mxGeometry relative="1" as="geometry">
            <Array as="points">
              <mxPoint x="480" y="352" />
              <mxPoint x="480" y="292" />
            </Array>
          </mxGeometry>
        </mxCell>
        <mxCell id="K546R3tfsQZQjaJNBDif-70" style="edgeStyle=orthogonalEdgeStyle;rounded=0;orthogonalLoop=1;jettySize=auto;html=1;exitX=1;exitY=0.5;exitDx=0;exitDy=0;entryX=0;entryY=0.75;entryDx=0;entryDy=0;fillColor=#f8cecc;strokeColor=#b85450;shape=flexArrow;strokeWidth=0;endSize=4;startSize=4;" parent="WIyWlLk6GJQsqaUBKTNV-1" source="K546R3tfsQZQjaJNBDif-7" target="K546R3tfsQZQjaJNBDif-42" edge="1">
          <mxGeometry relative="1" as="geometry" />
        </mxCell>
        <mxCell id="K546R3tfsQZQjaJNBDif-7" value="Motor Driver" style="rounded=1;whiteSpace=wrap;html=1;" parent="WIyWlLk6GJQsqaUBKTNV-1" vertex="1">
          <mxGeometry x="320" y="322" width="120" height="60" as="geometry" />
        </mxCell>
        <mxCell id="K546R3tfsQZQjaJNBDif-11" value="5V @ 3A" style="text;html=1;align=center;verticalAlign=middle;whiteSpace=wrap;rounded=0;" parent="WIyWlLk6GJQsqaUBKTNV-1" vertex="1">
          <mxGeometry x="60" y="292" width="60" height="30" as="geometry" />
        </mxCell>
        <mxCell id="K546R3tfsQZQjaJNBDif-12" value="Pi&lt;div&gt;camera&lt;/div&gt;" style="rounded=1;whiteSpace=wrap;html=1;" parent="WIyWlLk6GJQsqaUBKTNV-1" vertex="1">
          <mxGeometry x="115" y="490" width="50" height="50" as="geometry" />
        </mxCell>
        <mxCell id="K546R3tfsQZQjaJNBDif-93" style="edgeStyle=orthogonalEdgeStyle;rounded=0;orthogonalLoop=1;jettySize=auto;html=1;exitX=1;exitY=0.25;exitDx=0;exitDy=0;" parent="WIyWlLk6GJQsqaUBKTNV-1" source="K546R3tfsQZQjaJNBDif-31" edge="1">
          <mxGeometry relative="1" as="geometry">
            <mxPoint x="719.9999999999998" y="670" as="targetPoint" />
            <mxPoint x="630" y="599.4999999999999" as="sourcePoint" />
          </mxGeometry>
        </mxCell>
        <mxCell id="K546R3tfsQZQjaJNBDif-31" value="Encoder" style="swimlane;whiteSpace=wrap;html=1;startSize=30;" parent="WIyWlLk6GJQsqaUBKTNV-1" vertex="1">
          <mxGeometry x="520" y="585" width="80" height="58" as="geometry">
            <mxRectangle x="374" y="670" width="140" height="60" as="alternateBounds" />
          </mxGeometry>
        </mxCell>
        <mxCell id="K546R3tfsQZQjaJNBDif-32" value="Motor" style="text;html=1;align=center;verticalAlign=middle;whiteSpace=wrap;rounded=0;" parent="K546R3tfsQZQjaJNBDif-31" vertex="1">
          <mxGeometry x="10" y="28" width="60" height="30" as="geometry" />
        </mxCell>
        <mxCell id="K546R3tfsQZQjaJNBDif-89" style="edgeStyle=orthogonalEdgeStyle;rounded=0;orthogonalLoop=1;jettySize=auto;html=1;exitX=1;exitY=0.25;exitDx=0;exitDy=0;" parent="WIyWlLk6GJQsqaUBKTNV-1" source="K546R3tfsQZQjaJNBDif-42" edge="1">
          <mxGeometry relative="1" as="geometry">
            <mxPoint x="780" y="670" as="targetPoint" />
            <Array as="points">
              <mxPoint x="780" y="174" />
              <mxPoint x="780" y="670" />
            </Array>
          </mxGeometry>
        </mxCell>
        <mxCell id="K546R3tfsQZQjaJNBDif-42" value="Encoder" style="swimlane;whiteSpace=wrap;html=1;startSize=30;" parent="WIyWlLk6GJQsqaUBKTNV-1" vertex="1">
          <mxGeometry x="520" y="160" width="80" height="58" as="geometry">
            <mxRectangle x="374" y="670" width="140" height="60" as="alternateBounds" />
          </mxGeometry>
        </mxCell>
        <mxCell id="K546R3tfsQZQjaJNBDif-43" value="Motor" style="text;html=1;align=center;verticalAlign=middle;whiteSpace=wrap;rounded=0;" parent="K546R3tfsQZQjaJNBDif-42" vertex="1">
          <mxGeometry x="10" y="28" width="60" height="30" as="geometry" />
        </mxCell>
        <mxCell id="K546R3tfsQZQjaJNBDif-90" style="edgeStyle=orthogonalEdgeStyle;rounded=0;orthogonalLoop=1;jettySize=auto;html=1;exitX=1.011;exitY=0.05;exitDx=0;exitDy=0;exitPerimeter=0;" parent="WIyWlLk6GJQsqaUBKTNV-1" source="K546R3tfsQZQjaJNBDif-44" edge="1">
          <mxGeometry relative="1" as="geometry">
            <mxPoint x="760" y="670.02" as="targetPoint" />
            <mxPoint x="600" y="230.5" as="sourcePoint" />
            <Array as="points">
              <mxPoint x="610" y="251" />
              <mxPoint x="610" y="230" />
              <mxPoint x="770" y="230" />
              <mxPoint x="770" y="646" />
              <mxPoint x="760" y="646" />
            </Array>
          </mxGeometry>
        </mxCell>
        <mxCell id="K546R3tfsQZQjaJNBDif-44" value="Encoder" style="swimlane;whiteSpace=wrap;html=1;startSize=30;" parent="WIyWlLk6GJQsqaUBKTNV-1" vertex="1">
          <mxGeometry x="520" y="248" width="80" height="58" as="geometry">
            <mxRectangle x="374" y="670" width="140" height="60" as="alternateBounds" />
          </mxGeometry>
        </mxCell>
        <mxCell id="K546R3tfsQZQjaJNBDif-45" value="Motor" style="text;html=1;align=center;verticalAlign=middle;whiteSpace=wrap;rounded=0;" parent="K546R3tfsQZQjaJNBDif-44" vertex="1">
          <mxGeometry x="10" y="28" width="60" height="30" as="geometry" />
        </mxCell>
        <mxCell id="K546R3tfsQZQjaJNBDif-92" style="edgeStyle=orthogonalEdgeStyle;rounded=0;orthogonalLoop=1;jettySize=auto;html=1;exitX=0.994;exitY=0.296;exitDx=0;exitDy=0;exitPerimeter=0;" parent="WIyWlLk6GJQsqaUBKTNV-1" source="K546R3tfsQZQjaJNBDif-46" edge="1">
          <mxGeometry relative="1" as="geometry">
            <mxPoint x="729.9999999999998" y="670" as="targetPoint" />
            <mxPoint x="620" y="521.5" as="sourcePoint" />
          </mxGeometry>
        </mxCell>
        <mxCell id="K546R3tfsQZQjaJNBDif-46" value="Encoder" style="swimlane;whiteSpace=wrap;html=1;startSize=30;" parent="WIyWlLk6GJQsqaUBKTNV-1" vertex="1">
          <mxGeometry x="520" y="507" width="80" height="58" as="geometry">
            <mxRectangle x="374" y="670" width="140" height="60" as="alternateBounds" />
          </mxGeometry>
        </mxCell>
        <mxCell id="K546R3tfsQZQjaJNBDif-47" value="Motor" style="text;html=1;align=center;verticalAlign=middle;whiteSpace=wrap;rounded=0;" parent="K546R3tfsQZQjaJNBDif-46" vertex="1">
          <mxGeometry x="10" y="28" width="60" height="30" as="geometry" />
        </mxCell>
        <mxCell id="K546R3tfsQZQjaJNBDif-91" style="edgeStyle=orthogonalEdgeStyle;rounded=0;orthogonalLoop=1;jettySize=auto;html=1;exitX=1;exitY=0.25;exitDx=0;exitDy=0;" parent="WIyWlLk6GJQsqaUBKTNV-1" edge="1">
          <mxGeometry relative="1" as="geometry">
            <mxPoint x="740" y="668.75" as="targetPoint" />
            <mxPoint x="610" y="405.25" as="sourcePoint" />
          </mxGeometry>
        </mxCell>
        <mxCell id="K546R3tfsQZQjaJNBDif-50" value="Encoder" style="swimlane;whiteSpace=wrap;html=1;startSize=30;" parent="WIyWlLk6GJQsqaUBKTNV-1" vertex="1">
          <mxGeometry x="520" y="392" width="80" height="58" as="geometry">
            <mxRectangle x="374" y="670" width="140" height="60" as="alternateBounds" />
          </mxGeometry>
        </mxCell>
        <mxCell id="K546R3tfsQZQjaJNBDif-51" value="Motor" style="text;html=1;align=center;verticalAlign=middle;whiteSpace=wrap;rounded=0;" parent="K546R3tfsQZQjaJNBDif-50" vertex="1">
          <mxGeometry x="10" y="28" width="60" height="30" as="geometry" />
        </mxCell>
        <mxCell id="K546R3tfsQZQjaJNBDif-60" value="" style="shape=flexArrow;endArrow=classic;startArrow=classic;html=1;rounded=0;exitX=1;exitY=0.5;exitDx=0;exitDy=0;fillColor=#f8cecc;strokeColor=#b85450;strokeWidth=0;" parent="WIyWlLk6GJQsqaUBKTNV-1" source="K546R3tfsQZQjaJNBDif-3" edge="1">
          <mxGeometry width="100" height="100" relative="1" as="geometry">
            <mxPoint x="390" y="140" as="sourcePoint" />
            <mxPoint x="760" y="90" as="targetPoint" />
            <Array as="points">
              <mxPoint x="440" y="250" />
              <mxPoint x="440" y="90" />
              <mxPoint x="680" y="90" />
            </Array>
          </mxGeometry>
        </mxCell>
        <mxCell id="K546R3tfsQZQjaJNBDif-61" value="6V" style="text;html=1;align=center;verticalAlign=middle;whiteSpace=wrap;rounded=0;" parent="WIyWlLk6GJQsqaUBKTNV-1" vertex="1">
          <mxGeometry x="230" y="292" width="60" height="30" as="geometry" />
        </mxCell>
        <mxCell id="K546R3tfsQZQjaJNBDif-63" value="" style="endArrow=classic;html=1;rounded=0;horizontal=1;entryX=0.5;entryY=0;entryDx=0;entryDy=0;fillColor=#f8cecc;strokeColor=#b85450;shape=flexArrow;strokeWidth=0;endSize=4;startSize=4;" parent="WIyWlLk6GJQsqaUBKTNV-1" target="K546R3tfsQZQjaJNBDif-42" edge="1">
          <mxGeometry width="50" height="50" relative="1" as="geometry">
            <mxPoint x="560" y="100" as="sourcePoint" />
            <mxPoint x="700" y="110" as="targetPoint" />
            <Array as="points">
              <mxPoint x="560" y="100" />
            </Array>
          </mxGeometry>
        </mxCell>
        <mxCell id="K546R3tfsQZQjaJNBDif-64" value="" style="endArrow=classic;html=1;rounded=0;horizontal=1;entryX=0.5;entryY=0;entryDx=0;entryDy=0;fillColor=#f8cecc;strokeColor=#b85450;shape=flexArrow;strokeWidth=0;endSize=4;startSize=4;" parent="WIyWlLk6GJQsqaUBKTNV-1" target="K546R3tfsQZQjaJNBDif-44" edge="1">
          <mxGeometry width="50" height="50" relative="1" as="geometry">
            <mxPoint x="680" y="100" as="sourcePoint" />
            <mxPoint x="610" y="184" as="targetPoint" />
            <Array as="points">
              <mxPoint x="680" y="230" />
              <mxPoint x="560" y="230" />
            </Array>
          </mxGeometry>
        </mxCell>
        <mxCell id="K546R3tfsQZQjaJNBDif-65" value="" style="endArrow=classic;html=1;rounded=0;horizontal=1;entryX=0.5;entryY=0;entryDx=0;entryDy=0;fillColor=#f8cecc;strokeColor=#b85450;shape=flexArrow;strokeWidth=0;endSize=4;startSize=4;" parent="WIyWlLk6GJQsqaUBKTNV-1" target="K546R3tfsQZQjaJNBDif-50" edge="1">
          <mxGeometry width="50" height="50" relative="1" as="geometry">
            <mxPoint x="690" y="100" as="sourcePoint" />
            <mxPoint x="620" y="194" as="targetPoint" />
            <Array as="points">
              <mxPoint x="690" y="350" />
              <mxPoint x="560" y="350" />
            </Array>
          </mxGeometry>
        </mxCell>
        <mxCell id="K546R3tfsQZQjaJNBDif-66" value="" style="endArrow=classic;html=1;rounded=0;horizontal=1;entryX=0.5;entryY=0;entryDx=0;entryDy=0;fillColor=#f8cecc;strokeColor=#b85450;shape=flexArrow;strokeWidth=0;endSize=4;startSize=4;" parent="WIyWlLk6GJQsqaUBKTNV-1" target="K546R3tfsQZQjaJNBDif-46" edge="1">
          <mxGeometry width="50" height="50" relative="1" as="geometry">
            <mxPoint x="700" y="100" as="sourcePoint" />
            <mxPoint x="630" y="204" as="targetPoint" />
            <Array as="points">
              <mxPoint x="700" y="470" />
              <mxPoint x="560" y="470" />
            </Array>
          </mxGeometry>
        </mxCell>
        <mxCell id="K546R3tfsQZQjaJNBDif-67" value="" style="endArrow=classic;html=1;rounded=0;horizontal=1;entryX=0.5;entryY=0;entryDx=0;entryDy=0;fillColor=#f8cecc;strokeColor=#b85450;shape=flexArrow;strokeWidth=0;endSize=4;startSize=4;" parent="WIyWlLk6GJQsqaUBKTNV-1" target="K546R3tfsQZQjaJNBDif-31" edge="1">
          <mxGeometry width="50" height="50" relative="1" as="geometry">
            <mxPoint x="710" y="100" as="sourcePoint" />
            <mxPoint x="640" y="214" as="targetPoint" />
            <Array as="points">
              <mxPoint x="710" y="570" />
              <mxPoint x="560" y="570" />
            </Array>
          </mxGeometry>
        </mxCell>
        <mxCell id="K546R3tfsQZQjaJNBDif-68" value="6V" style="text;html=1;align=center;verticalAlign=middle;whiteSpace=wrap;rounded=0;" parent="WIyWlLk6GJQsqaUBKTNV-1" vertex="1">
          <mxGeometry x="560" y="50" width="60" height="30" as="geometry" />
        </mxCell>
        <mxCell id="K546R3tfsQZQjaJNBDif-71" value="4v" style="text;html=1;align=center;verticalAlign=middle;whiteSpace=wrap;rounded=0;" parent="WIyWlLk6GJQsqaUBKTNV-1" vertex="1">
          <mxGeometry x="450" y="400" width="60" height="30" as="geometry" />
        </mxCell>
        <mxCell id="K546R3tfsQZQjaJNBDif-72" value="4v" style="text;html=1;align=center;verticalAlign=middle;whiteSpace=wrap;rounded=0;" parent="WIyWlLk6GJQsqaUBKTNV-1" vertex="1">
          <mxGeometry x="430" y="270" width="60" height="30" as="geometry" />
        </mxCell>
        <mxCell id="K546R3tfsQZQjaJNBDif-75" value="4V" style="text;html=1;align=center;verticalAlign=middle;whiteSpace=wrap;rounded=0;" parent="WIyWlLk6GJQsqaUBKTNV-1" vertex="1">
          <mxGeometry x="450" y="500" width="60" height="30" as="geometry" />
        </mxCell>
        <mxCell id="K546R3tfsQZQjaJNBDif-76" value="" style="endArrow=none;html=1;rounded=0;fillColor=#f8cecc;strokeColor=#b85450;shape=flexArrow;" parent="WIyWlLk6GJQsqaUBKTNV-1" edge="1">
          <mxGeometry width="50" height="50" relative="1" as="geometry">
            <mxPoint x="30" y="30" as="sourcePoint" />
            <mxPoint x="80" y="30" as="targetPoint" />
          </mxGeometry>
        </mxCell>
        <mxCell id="K546R3tfsQZQjaJNBDif-77" value="Power Lines&lt;div&gt;&lt;br&gt;&lt;/div&gt;" style="text;html=1;align=center;verticalAlign=middle;whiteSpace=wrap;rounded=0;" parent="WIyWlLk6GJQsqaUBKTNV-1" vertex="1">
          <mxGeometry x="80" y="20" width="60" height="30" as="geometry" />
        </mxCell>
        <mxCell id="K546R3tfsQZQjaJNBDif-78" style="edgeStyle=orthogonalEdgeStyle;rounded=0;orthogonalLoop=1;jettySize=auto;html=1;exitX=0.25;exitY=0;exitDx=0;exitDy=0;entryX=0.389;entryY=1.034;entryDx=0;entryDy=0;entryPerimeter=0;" parent="WIyWlLk6GJQsqaUBKTNV-1" source="K546R3tfsQZQjaJNBDif-12" target="K546R3tfsQZQjaJNBDif-4" edge="1">
          <mxGeometry relative="1" as="geometry" />
        </mxCell>
        <mxCell id="K546R3tfsQZQjaJNBDif-80" style="edgeStyle=orthogonalEdgeStyle;rounded=0;orthogonalLoop=1;jettySize=auto;html=1;exitX=1;exitY=0.5;exitDx=0;exitDy=0;entryX=0;entryY=0.75;entryDx=0;entryDy=0;" parent="WIyWlLk6GJQsqaUBKTNV-1" source="K546R3tfsQZQjaJNBDif-4" target="K546R3tfsQZQjaJNBDif-7" edge="1">
          <mxGeometry relative="1" as="geometry" />
        </mxCell>
        <mxCell id="K546R3tfsQZQjaJNBDif-88" value="" style="shape=flexArrow;endArrow=classic;startArrow=classic;html=1;rounded=0;" parent="WIyWlLk6GJQsqaUBKTNV-1" edge="1">
          <mxGeometry width="100" height="100" relative="1" as="geometry">
            <mxPoint x="9" y="680" as="sourcePoint" />
            <mxPoint x="819" y="680" as="targetPoint" />
          </mxGeometry>
        </mxCell>
        <mxCell id="K546R3tfsQZQjaJNBDif-96" value="" style="endArrow=classic;html=1;rounded=0;entryX=0;entryY=0;entryDx=0;entryDy=0;" parent="WIyWlLk6GJQsqaUBKTNV-1" target="K546R3tfsQZQjaJNBDif-4" edge="1">
          <mxGeometry width="50" height="50" relative="1" as="geometry">
            <mxPoint x="40" y="670" as="sourcePoint" />
            <mxPoint x="40" y="330" as="targetPoint" />
            <Array as="points">
              <mxPoint x="40" y="332" />
            </Array>
          </mxGeometry>
        </mxCell>
        <mxCell id="K546R3tfsQZQjaJNBDif-97" value="" style="endArrow=classic;html=1;rounded=0;entryX=0;entryY=0.25;entryDx=0;entryDy=0;" parent="WIyWlLk6GJQsqaUBKTNV-1" target="K546R3tfsQZQjaJNBDif-4" edge="1">
          <mxGeometry width="50" height="50" relative="1" as="geometry">
            <mxPoint x="50" y="670" as="sourcePoint" />
            <mxPoint x="50" y="610" as="targetPoint" />
            <Array as="points">
              <mxPoint x="50" y="347" />
            </Array>
          </mxGeometry>
        </mxCell>
        <mxCell id="K546R3tfsQZQjaJNBDif-98" value="" style="endArrow=classic;html=1;rounded=0;entryX=-0.003;entryY=0.695;entryDx=0;entryDy=0;entryPerimeter=0;" parent="WIyWlLk6GJQsqaUBKTNV-1" target="K546R3tfsQZQjaJNBDif-4" edge="1">
          <mxGeometry width="50" height="50" relative="1" as="geometry">
            <mxPoint x="70" y="670" as="sourcePoint" />
            <mxPoint x="70" y="380" as="targetPoint" />
            <Array as="points">
              <mxPoint x="70" y="370" />
            </Array>
          </mxGeometry>
        </mxCell>
        <mxCell id="K546R3tfsQZQjaJNBDif-99" value="" style="endArrow=classic;html=1;rounded=0;entryX=-0.007;entryY=0.471;entryDx=0;entryDy=0;entryPerimeter=0;" parent="WIyWlLk6GJQsqaUBKTNV-1" target="K546R3tfsQZQjaJNBDif-4" edge="1">
          <mxGeometry width="50" height="50" relative="1" as="geometry">
            <mxPoint x="60.00000000000001" y="670" as="sourcePoint" />
            <mxPoint x="60" y="370" as="targetPoint" />
            <Array as="points">
              <mxPoint x="60" y="360" />
            </Array>
          </mxGeometry>
        </mxCell>
        <mxCell id="K546R3tfsQZQjaJNBDif-100" value="" style="endArrow=classic;html=1;rounded=0;entryX=0;entryY=1;entryDx=0;entryDy=0;" parent="WIyWlLk6GJQsqaUBKTNV-1" target="K546R3tfsQZQjaJNBDif-4" edge="1">
          <mxGeometry width="50" height="50" relative="1" as="geometry">
            <mxPoint x="80" y="670" as="sourcePoint" />
            <mxPoint x="80" y="610" as="targetPoint" />
          </mxGeometry>
        </mxCell>
        <mxCell id="K546R3tfsQZQjaJNBDif-103" value="" style="endArrow=none;html=1;rounded=0;" parent="WIyWlLk6GJQsqaUBKTNV-1" edge="1">
          <mxGeometry width="50" height="50" relative="1" as="geometry">
            <mxPoint x="150" y="30" as="sourcePoint" />
            <mxPoint x="200" y="30" as="targetPoint" />
          </mxGeometry>
        </mxCell>
        <mxCell id="K546R3tfsQZQjaJNBDif-104" value="Logic&amp;nbsp;&lt;div&gt;connection&lt;/div&gt;" style="text;html=1;align=center;verticalAlign=middle;whiteSpace=wrap;rounded=0;" parent="WIyWlLk6GJQsqaUBKTNV-1" vertex="1">
          <mxGeometry x="210" y="20" width="60" height="30" as="geometry" />
        </mxCell>
        <mxCell id="4GlcRqKf9EBfCJKpg2ci-0" value="Motor Control Signals&lt;div&gt;&lt;br&gt;&lt;/div&gt;" style="text;html=1;align=center;verticalAlign=middle;whiteSpace=wrap;rounded=0;" vertex="1" parent="WIyWlLk6GJQsqaUBKTNV-1">
          <mxGeometry x="190" y="521" width="60" height="30" as="geometry" />
        </mxCell>
        <mxCell id="4GlcRqKf9EBfCJKpg2ci-1" value="Motor Feedback&lt;div&gt;Bus&lt;/div&gt;" style="text;html=1;align=center;verticalAlign=middle;whiteSpace=wrap;rounded=0;" vertex="1" parent="WIyWlLk6GJQsqaUBKTNV-1">
          <mxGeometry x="394" y="700" width="60" height="30" as="geometry" />
        </mxCell>
        <mxCell id="4GlcRqKf9EBfCJKpg2ci-4" value="Camer feedback" style="text;html=1;align=center;verticalAlign=middle;whiteSpace=wrap;rounded=0;rotation=-90;" vertex="1" parent="WIyWlLk6GJQsqaUBKTNV-1">
          <mxGeometry x="74" y="427" width="60" height="30" as="geometry" />
        </mxCell>
      </root>
    </mxGraphModel>
  </diagram>
</mxfile>
